PathFileType	4	(X/Y/Z)	 2.8Hzhigh3min.trc
DataRate	CameraRate	NumFrames	NumMarkers	Units	OrigDataRate	OrigDataStartFrame	OrigNumFrames
200	200	8	35	m	200	126	1000
Frame#	Time	C7			LSH			RSH			MAN			RASI			LASI			HIPR			HIPL			RPSI			LPSI			COX			RTHI1			RTHI2			RTHI3			RTHI4			RSHA1			RSHA2			RSHA3			RSHA4			RHEEL			RMET5			RMET1			RTOE			LTHI1			LTHI2			LTHI3			LTHI4			LSHA1			LSHA2			LSHA3			LSHA4			LHEEL			LMET5			LMET1			LTOE			
		X1	Y1	Z1	X2	Y2	Z2	X3	Y3	Z3	X4	Y4	Z4	X5	Y5	Z5	X6	Y6	Z6	X7	Y7	Z7	X8	Y8	Z8	X9	Y9	Z9	X10	Y10	Z10	X11	Y11	Z11	X12	Y12	Z12	X13	Y13	Z13	X14	Y14	Z14	X15	Y15	Z15	X16	Y16	Z16	X17	Y17	Z17	X18	Y18	Z18	X19	Y19	Z19	X20	Y20	Z20	X21	Y21	Z21	X22	Y22	Z22	X23	Y23	Z23	X24	Y24	Z24	X25	Y25	Z25	X26	Y26	Z26	X27	Y27	Z27	X28	Y28	Z28	X29	Y29	Z29	X30	Y30	Z30	X31	Y31	Z31	X32	Y32	Z32	X33	Y33	Z33	X34	Y34	Z34	X35	Y35	Z35	
126	0.6300	-0.317384	1.476023	-0.547033	-0.235733	1.493408	-0.698824	-0.279790	1.477401	-0.382602	-0.186748	1.443179	-0.529020	-0.172175	1.035342	-0.420088	-0.146189	1.034773	-0.640795	-0.233422	1.088835	-0.399073	-0.192447	1.106923	-0.672178	-0.315738	1.078599	-0.496773	-0.303520	1.082196	-0.596225	-0.311726	1.089304	-0.545640	-0.271174	0.833139	-0.370282	-0.249738	0.777660	-0.366434	-0.188515	0.799426	-0.361194	-0.203532	0.858778	-0.365662	-0.295289	0.431494	-0.370335	-0.308185	0.390634	-0.376135	-0.248247	0.379489	-0.379867	-0.240048	0.418725	-0.378141	-0.363788	0.164828	-0.439392	-0.252075	0.056911	-0.381815	-0.219096	0.056793	-0.448187	-0.199244	0.046131	-0.435043	-0.238635	0.851015	-0.718024	-0.224509	0.791004	-0.719562	-0.160966	0.800341	-0.713229	-0.165920	0.859984	-0.710948	-0.307155	0.421314	-0.720838	-0.317615	0.382227	-0.720697	-0.255500	0.372365	-0.726029	-0.253359	0.416467	-0.725788	-0.371751	0.166876	-0.692498	-0.249401	0.068484	-0.726308	-0.216555	0.071922	-0.662829	-0.197985	0.059221	-0.664392	
127	0.6350	-0.317021	1.475568	-0.546810	-0.235091	1.492582	-0.698969	-0.279677	1.476269	-0.381964	-0.186396	1.442465	-0.528838	-0.172427	1.034973	-0.419871	-0.146302	1.034211	-0.640814	-0.234058	1.088293	-0.399082	-0.192889	1.106085	-0.672158	-0.316181	1.077698	-0.496812	-0.303862	1.081246	-0.596224	-0.312099	1.088382	-0.545687	-0.270888	0.832533	-0.369867	-0.249226	0.777136	-0.366260	-0.188046	0.799179	-0.361543	-0.203311	0.858437	-0.365799	-0.294374	0.431238	-0.370353	-0.307526	0.390472	-0.376167	-0.247711	0.379000	-0.380211	-0.239280	0.418126	-0.378572	-0.364793	0.164289	-0.440114	-0.252021	0.058020	-0.381116	-0.218738	0.057492	-0.447294	-0.198854	0.046914	-0.433915	-0.238784	0.849945	-0.717694	-0.224401	0.789989	-0.719100	-0.160873	0.799625	-0.713021	-0.166068	0.859253	-0.710896	-0.306340	0.420991	-0.720762	-0.316972	0.381953	-0.720655	-0.254884	0.371853	-0.725761	-0.252560	0.415926	-0.725508	-0.372268	0.166260	-0.692929	-0.248798	0.069059	-0.726248	-0.216312	0.072515	-0.662566	-0.197601	0.059803	-0.663982	
128	0.6400	-0.316627	1.474898	-0.546600	-0.234418	1.491484	-0.699128	-0.279525	1.474850	-0.381301	-0.186017	1.441473	-0.528638	-0.172683	1.034399	-0.419670	-0.146447	1.033412	-0.640855	-0.234677	1.087550	-0.399121	-0.193330	1.105003	-0.672146	-0.316647	1.076511	-0.496851	-0.304253	1.079982	-0.596222	-0.312507	1.087166	-0.545732	-0.270480	0.831701	-0.369426	-0.248583	0.776388	-0.366077	-0.187448	0.798706	-0.361905	-0.202984	0.857880	-0.365936	-0.293503	0.430758	-0.370440	-0.306904	0.390099	-0.376283	-0.247197	0.378278	-0.380572	-0.238556	0.417323	-0.379028	-0.365904	0.163594	-0.440768	-0.252065	0.058915	-0.380647	-0.218612	0.058016	-0.446690	-0.198668	0.047533	-0.433132	-0.238843	0.848711	-0.717475	-0.224163	0.788804	-0.718664	-0.160667	0.798770	-0.712719	-0.166139	0.858376	-0.710783	-0.305471	0.420430	-0.720618	-0.316283	0.381455	-0.720545	-0.254224	0.371105	-0.725448	-0.251709	0.415146	-0.725184	-0.372855	0.165498	-0.693290	-0.248372	0.069390	-0.726130	-0.216215	0.072880	-0.662260	-0.197367	0.060150	-0.663530	
129	0.6450	-0.316204	1.474019	-0.546401	-0.233716	1.490116	-0.699294	-0.279331	1.473149	-0.380626	-0.185614	1.440207	-0.528423	-0.172938	1.033600	-0.419487	-0.146623	1.032367	-0.640910	-0.235267	1.086608	-0.399172	-0.193758	1.103687	-0.672140	-0.317128	1.075057	-0.496891	-0.304681	1.078420	-0.596223	-0.312940	1.085675	-0.545782	-0.269946	0.830628	-0.368983	-0.247807	0.775410	-0.365901	-0.186727	0.798001	-0.362278	-0.202542	0.857098	-0.366067	-0.292680	0.430055	-0.370603	-0.306318	0.389509	-0.376488	-0.246714	0.377329	-0.380954	-0.237868	0.416326	-0.379489	-0.367117	0.162746	-0.441359	-0.252198	0.059587	-0.380413	-0.218706	0.058357	-0.446391	-0.198674	0.047980	-0.432715	-0.238796	0.847309	-0.717329	-0.223805	0.787456	-0.718259	-0.160361	0.797765	-0.712320	-0.166125	0.857355	-0.710604	-0.304554	0.419633	-0.720420	-0.315553	0.380730	-0.720379	-0.253533	0.370110	-0.725091	-0.250813	0.414119	-0.724820	-0.373509	0.164586	-0.693566	-0.248134	0.069460	-0.725951	-0.216253	0.073009	-0.661921	-0.197276	0.060253	-0.663045	
130	0.6500	-0.315754	1.472926	-0.546213	-0.232980	1.488486	-0.699461	-0.279117	1.471181	-0.379948	-0.185194	1.438658	-0.528189	-0.173190	1.032575	-0.419324	-0.146826	1.031073	-0.640973	-0.235825	1.085449	-0.399226	-0.194159	1.102136	-0.672138	-0.317614	1.073352	-0.496931	-0.305139	1.076578	-0.596230	-0.313392	1.083927	-0.545827	-0.269284	0.829321	-0.368544	-0.246903	0.774198	-0.365746	-0.185886	0.797048	-0.362653	-0.201979	0.856087	-0.366191	-0.291888	0.429137	-0.370788	-0.305756	0.388691	-0.376770	-0.246255	0.376163	-0.381338	-0.237204	0.415143	-0.379905	-0.368417	0.161744	-0.441907	-0.252419	0.060005	-0.380411	-0.219005	0.058501	-0.446399	-0.198855	0.048234	-0.432671	-0.238643	0.845742	-0.717239	-0.223334	0.785950	-0.717886	-0.159959	0.796602	-0.711827	-0.166024	0.856175	-0.710347	-0.303599	0.418608	-0.720187	-0.314794	0.379767	-0.720172	-0.252811	0.368871	-0.724692	-0.249882	0.412851	-0.724422	-0.374230	0.163532	-0.693756	-0.248091	0.069258	-0.725713	-0.216424	0.072890	-0.661551	-0.197328	0.060092	-0.662536	
131	0.6550	-0.315278	1.471612	-0.546031	-0.232217	1.486593	-0.699623	-0.278875	1.468954	-0.379273	-0.184763	1.436827	-0.527927	-0.173442	1.031311	-0.419180	-0.147051	1.029536	-0.641035	-0.236342	1.084052	-0.399275	-0.194533	1.100354	-0.672139	-0.318101	1.071409	-0.496969	-0.305620	1.074478	-0.596237	-0.313858	1.081936	-0.545865	-0.268489	0.827790	-0.368133	-0.245871	0.772760	-0.365614	-0.184921	0.795843	-0.363019	-0.201282	0.854835	-0.366314	-0.291126	0.428009	-0.370998	-0.305212	0.387652	-0.377114	-0.245826	0.374787	-0.381710	-0.236553	0.413753	-0.380226	-0.369795	0.160589	-0.442409	-0.252717	0.060141	-0.380642	-0.219486	0.058439	-0.446712	-0.199192	0.048273	-0.432992	-0.238365	0.843990	-0.717156	-0.222751	0.784273	-0.717533	-0.159466	0.795263	-0.711242	-0.165829	0.854819	-0.709989	-0.302621	0.417354	-0.719937	-0.314020	0.378587	-0.719936	-0.252079	0.367373	-0.724255	-0.248929	0.411336	-0.723995	-0.375011	0.162332	-0.693842	-0.248244	0.068779	-0.725421	-0.216727	0.072513	-0.661156	-0.197525	0.059667	-0.662006	
132	0.6600	-0.314779	1.470073	-0.545856	-0.231427	1.484443	-0.699777	-0.278598	1.466473	-0.378614	-0.184322	1.434706	-0.527642	-0.173691	1.029808	-0.419055	-0.147297	1.027758	-0.641092	-0.236812	1.082420	-0.399316	-0.194881	1.098340	-0.672142	-0.318585	1.069231	-0.497001	-0.306115	1.072133	-0.596242	-0.314334	1.079705	-0.545899	-0.267564	0.826024	-0.367769	-0.244724	0.771092	-0.365509	-0.183845	0.794379	-0.363375	-0.200456	0.853323	-0.366443	-0.290385	0.426671	-0.371217	-0.304702	0.386398	-0.377481	-0.245433	0.373189	-0.382076	-0.235900	0.412150	-0.380453	-0.371246	0.159280	-0.442849	-0.253090	0.059965	-0.381103	-0.220132	0.058155	-0.447304	-0.199670	0.048069	-0.433654	-0.237970	0.842061	-0.717111	-0.222062	0.782415	-0.717202	-0.158876	0.793733	-0.710576	-0.165537	0.853279	-0.709547	-0.301637	0.415874	-0.719672	-0.313247	0.377176	-0.719683	-0.251349	0.365633	-0.723786	-0.247969	0.409585	-0.723554	-0.375852	0.160975	-0.693806	-0.248593	0.068018	-0.725079	-0.217163	0.071868	-0.660733	-0.197868	0.058970	-0.661462	
133	0.6650	-0.314263	1.468310	-0.545686	-0.230610	1.482035	-0.699923	-0.278285	1.463749	-0.377976	-0.183857	1.432302	-0.527373	-0.173934	1.028060	-0.418949	-0.147563	1.025743	-0.641141	-0.237248	1.080547	-0.399338	-0.195209	1.096094	-0.672149	-0.319064	1.066827	-0.497026	-0.306620	1.069559	-0.596242	-0.314813	1.077249	-0.545925	-0.266523	0.824021	-0.367457	-0.243475	0.769189	-0.365437	-0.182672	0.792669	-0.363719	-0.199512	0.851557	-0.366576	-0.289641	0.425116	-0.371481	-0.304244	0.384956	-0.377828	-0.245075	0.371367	-0.382438	-0.235264	0.410319	-0.380646	-0.372741	0.157818	-0.443247	-0.253551	0.059453	-0.381782	-0.220923	0.057635	-0.448150	-0.200275	0.047593	-0.434625	-0.237453	0.839936	-0.717049	-0.221267	0.780366	-0.716891	-0.158195	0.791994	-0.709838	-0.165141	0.851535	-0.709024	-0.300653	0.414181	-0.719413	-0.312486	0.375549	-0.719425	-0.250641	0.363653	-0.723294	-0.247014	0.407593	-0.723103	-0.376753	0.159463	-0.693648	-0.249120	0.066997	-0.724690	-0.217737	0.070940	-0.660274	-0.198367	0.057994	-0.660904	
